<svg xmlns="http://www.w3.org/2000/svg" viewBox="0 0 679.90002 206.2"><defs><style>.a{fill:#fff;}</style></defs><path class="a" d="M561.7,35.5a25.83735,25.83735,0,0,0-20,10.2h-.2l1.9-8.5H522.9l-13.4,67.1h21.4l7.2-35.6c1.5-7,4.1-12.8,11.9-12.8,4,0,7,2.2,7,6.5,0,2.7-1.2,7.2-2,11.1l-6.3,30.8h22.2l7.8-37.9a78.73259,78.73259,0,0,0,1.7-12.8C580.4,40.4,573,35.5,561.7,35.5"/><path class="a" d="M428.4,104.3,446.9,12H424.6l-6.7,35.2c-3-10.2-11.2-11.6-18.6-11.6-19.3,0-32,17.7-32,43.2,0,8.1,2.8,27.3,23.6,27.3,7.4,0,13.4-2.5,17.6-11.6h.2l-2,9.9h21.7ZM400.1,87.8c-6.5,0-8.8-5.9-8.8-12,0-9.7,3.2-22.2,13-22.2,6.3,0,8.8,4.9,8.8,12.4,0,8.1-3.4,21.8-13,21.8"/><path class="a" d="M203.6,35.4c-7.4,0-13.4,2.5-17.6,11.6h-.2l2-9.9H165.3l-18.5,92.3h23.1l6.7-35.2c3,10.2,11.2,11.6,18.6,11.6,19.2,0,31.2-18.6,31.2-44-.1-8.1-2.1-26.4-22.8-26.4m-13,52.3c-6.3,0-8.8-4.9-8.8-12.4,0-8,3.2-20.8,12.8-20.8,6.5,0,9.1,4.9,9.1,11-.1,9.7-3.3,22.2-13.1,22.2"/><path class="a" d="M332.9,33.8c17.8,0,29.6,10.7,29.6,31,0,17.2-8.7,42.8-36.7,42.8-16.8,0-30.4-10.6-30.4-33.1-.1-21.4,12.6-40.7,37.5-40.7M326.8,89c9.1,0,12.4-16.6,12.4-22.4,0-8-1.9-13.7-8.1-13.7-9.3,0-12.6,16.6-12.6,23.5.1,5.5,1.7,12.6,8.3,12.6"/><path class="a" d="M128.6,83.9A11.64906,11.64906,0,0,1,118,90.3c-8.8,0-11.5-8-11.5-13.9h44.3a49.81328,49.81328,0,0,0,1.6-11.5c0-21.8-14.1-31.8-28.5-31.8-16.1,0-38.2,11.5-38.2,43.2,0,15.4,9.4,31.9,30.7,31.9,26.1,0,30.1-16.7,31.9-22.2l.6-2.1Zm-6.3-33.8c7,0,10.5,4.7,10.5,10.5a10.0745,10.0745,0,0,1-.3,2.5H108c2.1-8.2,6.9-13,14.3-13"/><path class="a" d="M484.7,83.9a11.64907,11.64907,0,0,1-10.6,6.4c-8.8,0-11.5-8-11.5-13.9h44.3a49.81328,49.81328,0,0,0,1.6-11.5c0-21.8-14.1-31.8-28.5-31.8-16.1,0-38.2,11.5-38.2,43.2,0,15.4,9.4,31.9,30.7,31.9,26.1,0,30.1-16.7,31.9-22.2l.6-2.1Zm-6.3-33.8c7,0,10.5,4.7,10.5,10.5a10.07546,10.07546,0,0,1-.3,2.5H464.1c2.1-8.2,6.9-13,14.3-13"/><path class="a" d="M293,56.3c1.3-18.1-14.4-23-27.4-23-14.8,0-30.7,7.1-30.7,26.4,0,7.4,3.2,11.5,6.9,13.9h0a26.02577,26.02577,0,0,0,9.8,3.4c1.1.2,2.1.4,3.1.6,7.1,1.3,11.9,2.1,11.9,6.3,0,2.7-1.5,6.2-6.8,6.2-2.6,0-5.4-.4-6.8-1.6-1.4-1.4-2.1-3.9-2.1-6.6H229.4c-.5,20.2,16,25.3,29.2,25.3,18.9,0,31.1-11.1,31.1-26.6,0-8.7-3.3-13.6-9.9-16.7h0a43.01056,43.01056,0,0,0-11.1-3.3c-.2,0-.5-.1-.7-.1-1.4-.2-2.8-.5-4.3-.7-3.1-.4-5.8-1.5-5.8-5.1,0-4,3.7-6,6.9-6,2,0,4.9.6,6.2,2.2,1.4,1.6,1.4,2.9,1.2,5.5l20.8-.1Z"/><path class="a" d="M62.8,0h-42L0,104H22.6l7.1-35.5H49.2c23.6,0,41.5-16,41.5-37.1C90.8,10.8,81.1,0,62.8,0M50.5,45.4H34.4l5.1-24.5H53.7c3.7,0,15.1,0,15.1,11,0,9-6.2,13.5-18.3,13.5"/><path class="a" d="M593.4,80.5c-.4,1.8-.7,3.4-1,5.1l-3.8,18.6h22.3L620,59.4l1.4-7.2h11.5l3.3-15.1H624.6l5.2-25.3H607.6l-5.2,25.3H591.9l-3.5,15.1h10.8Z"/><path class="a" d="M679.9,85c-.1.5-.2,1-.3,1.6h0c-4.2,13.8-13.1,15.7-21.4,15.7-2.6,0-5.2-.2-7.8-.4s-5-.4-7.4-.4a29.08329,29.08329,0,0,0-3,.1c-.4,0-.7.1-1.1.1a21.806,21.806,0,0,0-4.4,1.1c-3.4,1.3-4.2,2.8-4.2,2.8a7.41421,7.41421,0,0,1,.1-2.1h0c3.5-15.9,14.4-18.3,23.3-18.3,3.2,0,6.5.3,9.7.6,3,.3,5.9.5,8.7.5a23.63823,23.63823,0,0,0,6.5-.8h0a6.943,6.943,0,0,0,1.3-.5m-30.8,34.1c-14.4,0-16.4,1.4-20.3,6.6-22.9,35.1-65,58.7-113.1,58.7-46.7,0-87.8-22.3-111.1-55.7-3.4-4-6.6-5.2-19.4-5.2h-8.9c24.2,48.7,77.6,82.7,139.4,82.7,40.8,0,79.1-14.6,108-41a141.95865,141.95865,0,0,0,33.6-46.1Z"/></svg>